<?xml version="1.0" standalone="no"?>
<!DOCTYPE svg PUBLIC "-//W3C//DTD SVG 20010904//EN"
 "http://www.w3.org/TR/2001/REC-SVG-20010904/DTD/svg10.dtd">
<svg version="1.0" xmlns="http://www.w3.org/2000/svg"
 width="500.000000pt" height="500.000000pt" viewBox="0 0 500.000000 500.000000"
 preserveAspectRatio="xMidYMid meet">
<metadata>
Created by potrace 1.11, written by Peter Selinger 2001-2013
</metadata>
<g transform="translate(0.000000,500.000000) scale(0.100000,-0.100000)"
fill="#000000" stroke="none">
<path d="M1680 2680 l0 -810 815 0 815 0 0 810 0 810 -815 0 -815 0 0 -810z
m1580 0 l0 -760 -765 0 -765 0 0 760 0 760 765 0 765 0 0 -760z"/>
<path d="M1940 3010 c0 -5 14 -10 30 -10 l30 0 0 -325 0 -325 -24 0 c-14 0
-28 -4 -31 -10 -4 -6 43 -10 135 -10 92 0 139 4 135 10 -3 6 -17 10 -31 10
l-24 0 0 149 0 149 98 4 c75 3 106 8 132 24 134 78 107 284 -43 329 -60 18
-407 22 -407 5z m319 -26 c35 -25 51 -75 51 -156 0 -96 -20 -138 -76 -157 -73
-25 -74 -24 -74 164 l0 165 38 0 c21 0 48 -7 61 -16z"/>
<path d="M2517 3013 c-10 -17 -19 -193 -10 -193 5 0 17 25 27 55 9 30 31 70
50 90 28 29 40 35 75 35 l41 0 0 -325 0 -325 -25 0 c-14 0 -25 -4 -25 -10 0
-6 52 -10 135 -10 83 0 135 4 135 10 0 6 -11 10 -25 10 l-25 0 0 325 0 325 39
0 c52 0 93 -40 122 -120 12 -33 25 -60 30 -60 11 0 -1 159 -13 183 -8 15 -31
17 -268 17 -142 0 -261 -3 -263 -7z"/>
<path d="M1740 1660 c0 -40 4 -70 10 -70 6 0 10 11 10 24 0 18 7 25 29 29 60
12 48 87 -14 87 l-35 0 0 -70z m58 51 c21 -13 10 -46 -16 -49 -19 -3 -22 1
-22 27 0 31 13 39 38 22z"/>
<path d="M1925 1719 c-28 -78 -42 -129 -35 -129 5 0 12 9 15 20 4 13 15 20 32
20 16 0 27 -7 30 -20 3 -11 10 -20 15 -20 6 0 7 8 3 18 -4 9 -14 37 -22 62
-18 53 -30 69 -38 49z m24 -49 c9 -28 8 -30 -14 -30 -22 0 -23 2 -14 30 6 17
12 30 14 30 2 0 8 -13 14 -30z"/>
<path d="M2051 1658 c1 -40 4 -61 6 -45 3 19 10 27 24 27 12 0 24 -11 30 -27
6 -16 13 -23 16 -16 2 7 -1 21 -6 32 -7 13 -8 22 -1 26 5 3 10 19 10 35 0 29
-15 40 -56 40 -23 0 -24 -2 -23 -72z m59 47 c18 -21 5 -45 -25 -45 -20 0 -25
5 -25 23 0 39 26 50 50 22z"/>
<path d="M2200 1660 c0 -40 4 -70 10 -70 6 0 10 30 10 70 0 40 -4 70 -10 70
-6 0 -10 -30 -10 -70z"/>
<path d="M2291 1716 c-17 -20 1 -52 34 -60 16 -4 25 -13 25 -25 0 -22 -22 -33
-47 -24 -11 4 -14 3 -9 -5 9 -16 49 -15 64 0 22 22 13 48 -23 65 -43 20 -44
49 -2 46 15 -1 27 2 27 8 0 15 -56 10 -69 -5z"/>
<path d="M2558 1723 c20 -4 22 -10 22 -69 0 -36 4 -64 10 -64 6 0 10 28 10 64
0 59 2 65 23 69 12 2 -3 4 -33 4 -30 0 -45 -2 -32 -4z"/>
<path d="M2710 1711 c-15 -29 -12 -87 6 -105 36 -36 84 -7 84 50 0 51 -15 74
-50 74 -19 0 -33 -7 -40 -19z m54 3 c20 -8 22 -87 2 -103 -27 -22 -46 -2 -46
48 0 60 7 69 44 55z"/>
<path d="M2860 1696 c0 -65 11 -96 36 -102 40 -10 54 11 52 80 l-2 61 -3 -57
c-7 -102 -63 -104 -63 -2 0 30 -4 54 -10 54 -5 0 -10 -15 -10 -34z"/>
<path d="M3020 1660 c0 -40 4 -70 10 -70 6 0 10 11 10 25 0 16 6 25 15 25 9 0
21 -11 27 -25 6 -14 15 -25 19 -25 5 0 3 11 -3 25 -9 19 -8 31 1 49 20 36 0
66 -44 66 l-35 0 0 -70z m58 51 c21 -13 10 -46 -16 -49 -19 -3 -22 1 -22 27 0
31 13 39 38 22z"/>
<path d="M3180 1715 c-17 -20 -6 -43 25 -55 51 -19 39 -66 -14 -53 -17 4 -22
2 -17 -6 10 -16 61 -14 76 4 18 21 3 52 -31 64 -40 14 -37 47 4 44 15 -1 25 2
22 8 -9 14 -51 11 -65 -6z"/>
<path d="M2443 1643 c9 -2 23 -2 30 0 6 3 -1 5 -18 5 -16 0 -22 -2 -12 -5z"/>
</g>
</svg>
